<svg width="20" height="21" viewBox="0 0 20 21" fill="none" xmlns="http://www.w3.org/2000/svg">
<path fill-rule="evenodd" clip-rule="evenodd" d="M9.38525 0.500001H10.6146C10.8167 0.499991 10.9967 0.499983 11.1473 0.510879C11.3083 0.522533 11.475 0.548584 11.642 0.62083C11.939 0.749303 12.1852 0.972175 12.3426 1.25488C12.4311 1.41386 12.4736 1.57713 12.5013 1.7362C12.5271 1.88492 12.545 2.06407 12.5651 2.26515L12.5669 2.28275C12.5678 2.29193 12.5687 2.30105 12.5696 2.3101C12.61 2.71433 12.638 2.98578 12.6751 3.18462C12.7123 3.38381 12.7459 3.42856 12.7459 3.4286C12.7459 3.4286 12.7459 3.42868 12.7459 3.4286C12.8228 3.52019 12.9395 3.56845 13.0587 3.55817C13.0587 3.5581 13.1141 3.55024 13.2812 3.43567C13.4518 3.31874 13.6693 3.1414 13.9955 2.87451L14.0092 2.86329C14.1656 2.73532 14.3049 2.62131 14.4283 2.53441C14.5604 2.44145 14.7059 2.35606 14.8809 2.30623C15.1921 2.21761 15.5238 2.23416 15.8246 2.35329C15.9938 2.42029 16.1301 2.51974 16.2522 2.62537C16.3663 2.72412 16.4937 2.85144 16.6365 2.99435L17.5058 3.86362C17.6487 4.00647 17.776 4.13375 17.8747 4.24789C17.9803 4.36999 18.0798 4.50628 18.1468 4.67543C18.2659 4.97628 18.2825 5.30803 18.1938 5.61923C18.144 5.79422 18.0586 5.93973 17.9657 6.07174C17.8788 6.19516 17.7647 6.3345 17.6368 6.4909L17.6256 6.50457C17.3587 6.83075 17.1814 7.04824 17.0644 7.21879C16.9499 7.38592 16.942 7.44134 16.942 7.44133C16.9419 7.44158 16.9419 7.44133 16.942 7.44133C16.9315 7.56061 16.9799 7.6771 17.0715 7.75416C17.0716 7.75411 17.1163 7.78774 17.3155 7.8249C17.5188 7.86282 17.7979 7.89122 18.2173 7.93315L18.2349 7.93491C18.4359 7.95501 18.6151 7.97292 18.7638 7.99873C18.9228 8.02635 19.0861 8.06885 19.2451 8.15734C19.5278 8.31474 19.7507 8.56103 19.8792 8.85803C19.9514 9.02501 19.9775 9.1917 19.9891 9.35272C20 9.50326 20 9.68329 20 9.88536V11.1147C20 11.3167 20 11.4968 19.9891 11.6473C19.9775 11.8083 19.9514 11.9749 19.8792 12.1419C19.7507 12.4389 19.5278 12.6853 19.245 12.8427C19.086 12.9312 18.9228 12.9737 18.7638 13.0013C18.6151 13.0271 18.436 13.045 18.2349 13.0651L18.2173 13.0668C17.7981 13.1088 17.5189 13.1372 17.3157 13.1751C17.1166 13.2122 17.0718 13.2458 17.0718 13.2458C17.0716 13.2459 17.0718 13.2458 17.0718 13.2458C16.98 13.3228 16.9319 13.4394 16.9422 13.5587C16.9423 13.5589 16.9503 13.6144 17.0646 13.7812C17.1815 13.9517 17.3588 14.1691 17.6256 14.4951L17.6367 14.5088C17.7647 14.6651 17.8787 14.8044 17.9655 14.9278C18.0585 15.0598 18.1438 15.2052 18.1937 15.3801C18.2824 15.6915 18.2658 16.0234 18.1466 16.3244C18.0796 16.4934 17.9802 16.6297 17.8746 16.7517C17.7759 16.8658 17.6486 16.9931 17.5058 17.1359L16.6364 18.0053C16.4935 18.1482 16.3662 18.2755 16.2521 18.3742C16.13 18.4798 15.9937 18.5793 15.8246 18.6463C15.5237 18.7654 15.1919 18.782 14.8807 18.6933C14.7057 18.6435 14.5602 18.5581 14.4282 18.4652C14.3048 18.3783 14.1655 18.2643 14.0092 18.1363L13.9954 18.1251C13.6693 17.8583 13.4518 17.6809 13.2812 17.564C13.1146 17.4498 13.059 17.4416 13.0587 17.4415C12.9396 17.4312 12.8229 17.4796 12.7459 17.5711C12.7459 17.5712 12.7123 17.6159 12.6751 17.8151C12.6372 18.0184 12.6088 18.2977 12.5669 18.717L12.5651 18.7346C12.545 18.9358 12.5271 19.115 12.5013 19.2638C12.4736 19.4229 12.4311 19.5862 12.3426 19.7452C12.1852 20.0278 11.939 20.2507 11.6421 20.3791C11.4751 20.4514 11.3084 20.4775 11.1473 20.4891C10.9967 20.5 10.8167 20.5 10.6146 20.5H9.38537C9.18329 20.5 9.00326 20.5 8.85272 20.4891C8.69169 20.4775 8.52501 20.4514 8.35803 20.3792C8.06103 20.2507 7.81474 20.0278 7.65735 19.7451C7.56885 19.5861 7.52635 19.4229 7.49873 19.2638C7.47291 19.1151 7.45501 18.9359 7.43491 18.7349L7.43315 18.7173C7.39122 18.2979 7.36282 18.0188 7.3249 17.8155C7.28774 17.6163 7.25411 17.5716 7.25416 17.5715C7.254 17.5713 7.25416 17.5715 7.25416 17.5715C7.17719 17.4798 7.0606 17.4316 6.94133 17.4419C6.94134 17.442 6.88592 17.4499 6.7188 17.5644C6.54825 17.6814 6.33077 17.8587 6.0046 18.1255L5.99089 18.1368C5.83452 18.2647 5.69519 18.3787 5.57179 18.4656C5.43979 18.5585 5.2943 18.6439 5.11933 18.6938C4.8081 18.7824 4.47632 18.7659 4.17547 18.6467C4.00632 18.5797 3.87004 18.4803 3.74794 18.3746C3.63379 18.2759 3.50649 18.1486 3.3636 18.0057L2.49438 17.1365C2.35149 16.9936 2.22418 16.8663 2.12543 16.7521C2.01981 16.63 1.92036 16.4937 1.85337 16.3246C1.73422 16.0237 1.71767 15.692 1.80629 15.3808C1.85613 15.2058 1.94152 15.0603 2.03447 14.9283C2.12137 14.8049 2.23538 14.6655 2.36335 14.5091L2.37455 14.4954C2.64142 14.1693 2.81876 13.9518 2.93568 13.7812C3.05025 13.6141 3.05811 13.5587 3.05818 13.5587C3.05818 13.5587 3.0582 13.5584 3.05818 13.5587C3.06859 13.4394 3.02022 13.3229 2.92861 13.2459C2.92857 13.2459 2.88381 13.2123 2.68463 13.1751C2.48134 13.1372 2.20215 13.1088 1.78279 13.0669L1.75726 13.0643C1.55939 13.0445 1.38298 13.0267 1.23621 13.0013C1.07713 12.9736 0.913857 12.9311 0.754877 12.8426C0.472175 12.6852 0.249304 12.439 0.120832 12.142C0.0485849 11.975 0.0225335 11.8083 0.0108787 11.6473C-1.68645e-05 11.4967 -8.66696e-06 11.3167 5.31865e-07 11.1146V9.88545C-8.66696e-06 9.68334 -1.68645e-05 9.50326 0.0108821 9.35269C0.0225403 9.19163 0.0485997 9.02492 0.120867 8.8579C0.249334 8.561 0.47216 8.31479 0.754797 8.15741C0.913793 8.06889 1.07709 8.02637 1.23619 7.99874C1.38493 7.97291 1.5641 7.955 1.7652 7.9349L1.78283 7.93314C1.79201 7.93222 1.80113 7.93131 1.81018 7.93041C2.21446 7.88995 2.48597 7.86196 2.68483 7.82486C2.88406 7.78768 2.92881 7.75404 2.92885 7.75409C2.92885 7.75409 2.92904 7.75393 2.92885 7.75409C3.02052 7.67713 3.06867 7.56059 3.05839 7.44135C3.05833 7.44136 3.05047 7.38592 2.93587 7.21875C2.81892 7.04814 2.64153 6.83058 2.37457 6.5043L2.36335 6.49059C2.23534 6.33414 2.12128 6.19475 2.03435 6.07129C1.94137 5.93922 1.85595 5.79366 1.80612 5.6186C1.71759 5.30752 1.73412 4.97593 1.85318 4.67521C1.92017 4.50598 2.01965 4.36964 2.12531 4.24748C2.22408 4.13329 2.35144 4.00594 2.49438 3.86301L3.36348 2.99392C3.50637 2.85101 3.63368 2.72369 3.74784 2.62494C3.86995 2.51931 4.00625 2.41986 4.17543 2.35286C4.47624 2.23373 4.80796 2.21719 5.11914 2.30579C5.29415 2.35563 5.43967 2.44103 5.5717 2.534C5.69513 2.62091 5.83449 2.73494 5.99091 2.86293L6.00462 2.87415C6.33077 3.141 6.54825 3.31832 6.7188 3.43525C6.8859 3.54981 6.94133 3.55768 6.94132 3.55775C6.94132 3.55776 6.94156 3.55777 6.94132 3.55775C7.06063 3.56819 7.17715 3.5198 7.25422 3.42814C7.25417 3.4281 7.28779 3.38336 7.32494 3.18422C7.36224 2.98427 7.39032 2.71087 7.43114 2.30283C7.43181 2.29613 7.43249 2.28939 7.43316 2.28262L7.43492 2.26503C7.45501 2.06401 7.47292 1.88491 7.49873 1.73623C7.52634 1.5772 7.56883 1.41397 7.65728 1.25503C7.81469 0.972205 8.06106 0.749246 8.35815 0.620761C8.5251 0.548556 8.69175 0.52252 8.85274 0.510872C9.00324 0.499983 9.18323 0.499991 9.38525 0.500001ZM11.47 2.39244L11.4724 2.41676C11.5112 2.80532 11.5439 3.13179 11.5915 3.3868C11.639 3.64173 11.7155 3.91577 11.9013 4.13704C12.2095 4.50421 12.6774 4.69802 13.1549 4.65632C13.4427 4.63119 13.6906 4.49153 13.9045 4.3449C14.1185 4.19823 14.3724 3.99048 14.6746 3.74322L14.6935 3.72769C14.8678 3.58509 14.9761 3.4969 15.063 3.43575C15.1448 3.37813 15.1748 3.3687 15.1828 3.36644C15.2606 3.34429 15.3435 3.34842 15.4187 3.37821C15.4264 3.38124 15.4553 3.39361 15.531 3.45909C15.6113 3.52858 15.7103 3.62711 15.8696 3.78634L16.7137 4.63053C16.873 4.78974 16.9715 4.88875 17.041 4.96908C17.1065 5.04477 17.1188 5.0737 17.1219 5.08136C17.1516 5.15657 17.1558 5.23951 17.1336 5.31731C17.1314 5.32523 17.1219 5.35524 17.0643 5.43708C17.0032 5.52393 16.915 5.63224 16.7724 5.80652L16.7569 5.82549C16.5096 6.12766 16.3019 6.38155 16.1552 6.59549C16.0086 6.80937 15.8689 7.05724 15.8438 7.34502C15.8021 7.82262 15.9959 8.29056 16.3631 8.59877C16.5844 8.78448 16.8584 8.861 17.1133 8.90856C17.3683 8.95613 17.6947 8.98876 18.0832 9.0276L18.1076 9.03004C18.3316 9.05245 18.4706 9.06668 18.5752 9.08485C18.6738 9.10197 18.7017 9.11652 18.7089 9.12053C18.7796 9.15988 18.8353 9.22145 18.8674 9.2957C18.8707 9.30326 18.8824 9.33246 18.8896 9.43228C18.8973 9.53821 18.8976 9.67787 18.8976 9.90303V11.097C18.8976 11.3222 18.8973 11.4618 18.8896 11.5677C18.8824 11.6675 18.8707 11.6967 18.8674 11.7043C18.8353 11.7785 18.7796 11.8401 18.7089 11.8795C18.7017 11.8835 18.6738 11.898 18.5752 11.9152C18.4706 11.9333 18.3316 11.9476 18.1076 11.97L18.0832 11.9724C17.6948 12.0112 17.3685 12.0438 17.1136 12.0914C16.8587 12.1389 16.5848 12.2154 16.3636 12.401C15.9961 12.7093 15.8022 13.1774 15.844 13.6552C15.8692 13.9429 16.0089 14.1907 16.1554 14.4045C16.302 14.6184 16.5097 14.8721 16.7568 15.1742L16.7724 15.1932C16.9149 15.3674 17.0031 15.4757 17.0642 15.5625C17.1218 15.6443 17.1312 15.6743 17.1335 15.6822C17.1557 15.7601 17.1515 15.843 17.1217 15.9183C17.1187 15.9259 17.1063 15.9548 17.0409 16.0305C16.9714 16.1108 16.8729 16.2098 16.7138 16.3689L15.8694 17.2133C15.7102 17.3725 15.6112 17.471 15.5309 17.5405C15.4552 17.606 15.4263 17.6183 15.4186 17.6214C15.3434 17.6512 15.2605 17.6553 15.1826 17.6331C15.1747 17.6309 15.1447 17.6214 15.0629 17.5638C14.976 17.5027 14.8677 17.4145 14.6935 17.2719L14.6745 17.2564C14.3724 17.0092 14.1185 16.8015 13.9046 16.6548C13.6907 16.5082 13.4428 16.3685 13.1551 16.3434C12.6774 16.3016 12.2095 16.4955 11.9013 16.8627C11.7155 17.084 11.639 17.358 11.5915 17.613C11.5439 17.868 11.5113 18.1944 11.4724 18.583L11.47 18.6074C11.4476 18.8315 11.4333 18.9705 11.4152 19.0752C11.398 19.1739 11.3835 19.2018 11.3795 19.2089C11.3401 19.2796 11.2786 19.3353 11.2043 19.3674C11.1968 19.3707 11.1676 19.3824 11.0677 19.3896C10.9618 19.3973 10.8221 19.3976 10.5968 19.3976H9.40304C9.17787 19.3976 9.03821 19.3973 8.93228 19.3896C8.83246 19.3824 8.80326 19.3707 8.7957 19.3674C8.72145 19.3353 8.65988 19.2796 8.62053 19.2089C8.61652 19.2017 8.60197 19.1738 8.58485 19.0752C8.56668 18.9706 8.55245 18.8316 8.53004 18.6076L8.5276 18.5832C8.48876 18.1947 8.45613 17.8683 8.40856 17.6133C8.36101 17.3584 8.28448 17.0844 8.09878 16.8631C7.79056 16.4959 7.32262 16.3021 6.84501 16.3438C6.55723 16.3689 6.30937 16.5086 6.09549 16.6552C5.88157 16.8019 5.62769 17.0096 5.32553 17.2568L5.30654 17.2724C5.13229 17.4149 5.02397 17.5031 4.93714 17.5643C4.85531 17.6219 4.8253 17.6313 4.81737 17.6336C4.73957 17.6557 4.65662 17.6516 4.58141 17.6218C4.57375 17.6188 4.54482 17.6064 4.46913 17.5409C4.38881 17.4714 4.28982 17.3729 4.13061 17.2137L3.28638 16.3695C3.12716 16.2103 3.02864 16.1113 2.95915 16.0309C2.89367 15.9552 2.88131 15.9263 2.87827 15.9187C2.84848 15.8434 2.84435 15.7605 2.8665 15.6827C2.86876 15.6748 2.87819 15.6448 2.93581 15.5629C2.99696 15.4761 3.08514 15.3678 3.22773 15.1935L3.24324 15.1745C3.4905 14.8724 3.69825 14.6185 3.84491 14.4045C3.99154 14.1906 4.13119 13.9427 4.15633 13.655C4.19804 13.1774 4.00422 12.7095 3.63703 12.4013C3.41576 12.2155 3.14173 12.139 2.8868 12.0915C2.63207 12.0439 2.30602 12.0113 1.91802 11.9725L1.91685 11.9724L1.89248 11.97C1.66841 11.9476 1.52944 11.9333 1.42479 11.9152C1.32617 11.898 1.29828 11.8835 1.29108 11.8795C1.22041 11.8401 1.16469 11.7786 1.13257 11.7043C1.1293 11.6967 1.11759 11.6675 1.11037 11.5677C1.1027 11.4618 1.10236 11.3221 1.10236 11.0969V9.90314C1.10236 9.67793 1.1027 9.53823 1.11037 9.43228C1.11759 9.33243 1.12931 9.30323 1.13258 9.29567C1.1647 9.22144 1.2204 9.15989 1.29106 9.12055C1.29826 9.11654 1.32616 9.10198 1.42479 9.08485C1.52945 9.06668 1.66842 9.05244 1.89252 9.03003L1.91695 9.02759C2.30552 8.98874 2.63201 8.9561 2.88703 8.90852C3.14201 8.86094 3.41608 8.78439 3.63738 8.5986C4.00444 8.29043 4.1982 7.82265 4.15655 7.34519C4.13145 7.05733 3.99177 6.80939 3.8451 6.59545C3.69841 6.38146 3.49061 6.1275 3.2433 5.82524L3.22776 5.80624C3.08511 5.6319 2.99688 5.52353 2.93571 5.43665C2.87806 5.35478 2.86863 5.32475 2.86638 5.31683C2.84424 5.23906 2.84838 5.15616 2.87814 5.08098C2.88118 5.07331 2.89354 5.04438 2.95904 4.96865C3.02855 4.88829 3.12711 4.78926 3.28639 4.62998L4.13045 3.78592C4.28969 3.62669 4.38869 3.52816 4.46902 3.45866C4.54473 3.39318 4.57365 3.38081 4.58132 3.37778C4.65652 3.348 4.73945 3.34386 4.81725 3.36601C4.82516 3.36827 4.85518 3.3777 4.93704 3.43534C5.02391 3.4965 5.13225 3.58471 5.30656 3.72733L5.32554 3.74286C5.62769 3.99008 5.88156 4.1978 6.09546 4.34445C6.30931 4.49106 6.55714 4.63071 6.84486 4.65589C7.32259 4.69768 7.79067 4.5038 8.09892 4.13644C8.28456 3.9152 8.36106 3.64124 8.4086 3.38637C8.45616 3.13146 8.48878 2.80512 8.52761 2.41672L8.53005 2.39231C8.53046 2.38822 8.53087 2.38417 8.53127 2.38014C8.55297 2.16326 8.56701 2.0275 8.58484 1.92479C8.60196 1.8262 8.61651 1.79832 8.62051 1.79112C8.65987 1.72041 8.72146 1.66467 8.79573 1.63255C8.80329 1.62928 8.83248 1.61758 8.93229 1.61036C9.03819 1.6027 9.17782 1.60236 9.40294 1.60236H10.5969C10.8221 1.60236 10.9618 1.6027 11.0677 1.61037C11.1675 1.61759 11.1967 1.6293 11.2043 1.63257C11.2786 1.66469 11.3401 1.72041 11.3795 1.79108C11.3835 1.79828 11.398 1.82617 11.4152 1.92479C11.4333 2.02944 11.4476 2.16838 11.47 2.39244ZM9.9999 7.27165C8.21693 7.27165 6.77155 8.71703 6.77155 10.5C6.77155 12.283 8.21693 13.7283 9.9999 13.7283C11.7829 13.7283 13.2282 12.283 13.2282 10.5C13.2282 8.71703 11.7829 7.27165 9.9999 7.27165ZM5.66919 10.5C5.66919 8.10822 7.60811 6.16929 9.9999 6.16929C12.3917 6.16929 14.3306 8.10822 14.3306 10.5C14.3306 12.8918 12.3917 14.8307 9.9999 14.8307C7.60811 14.8307 5.66919 12.8918 5.66919 10.5Z" fill="#9595A6"/>
</svg>
