<svg width="18" height="19" viewBox="0 0 18 19" fill="none" xmlns="http://www.w3.org/2000/svg">
<path d="M2 2.96997H8C8.55 2.96997 9 2.51997 9 1.96997C9 1.41997 8.55 0.969971 8 0.969971H2C0.9 0.969971 0 1.86997 0 2.96997V16.97C0 18.07 0.9 18.97 2 18.97H8C8.55 18.97 9 18.52 9 17.97C9 17.42 8.55 16.97 8 16.97H2V2.96997Z" fill="#C1C1C1"/>
<path d="M17.65 9.61995L14.86 6.82995C14.7905 6.7585 14.7012 6.70943 14.6036 6.68902C14.506 6.6686 14.4045 6.67778 14.3121 6.71536C14.2198 6.75295 14.1408 6.81724 14.0851 6.9C14.0295 6.98277 13.9999 7.08024 14 7.17995V8.96995H7C6.45 8.96995 6 9.41995 6 9.96995C6 10.5199 6.45 10.9699 7 10.9699H14V12.7599C14 13.2099 14.54 13.43 14.85 13.11L17.64 10.3199C17.84 10.1299 17.84 9.80995 17.65 9.61995Z" fill="#C1C1C1"/>
</svg>
