<svg width="3" height="14" viewBox="0 0 3 14" fill="none" xmlns="http://www.w3.org/2000/svg">
<path d="M3 7.00031C3 6.81096 2.96504 6.62346 2.89712 6.44852C2.8292 6.27359 2.72965 6.11463 2.60415 5.98074C2.47865 5.84685 2.32965 5.74064 2.16568 5.66818C2.0017 5.59572 1.82596 5.55842 1.64847 5.55842C1.47099 5.55842 1.29524 5.59572 1.13126 5.66818C0.96729 5.74064 0.818299 5.84685 0.692798 5.98074C0.567297 6.11463 0.467744 6.27359 0.399823 6.44852C0.331903 6.62346 0.296945 6.81096 0.296945 7.00031C0.297026 7.38273 0.439496 7.74945 0.693015 8.01979C0.946533 8.29014 1.29033 8.44197 1.64878 8.44188C2.00723 8.44179 2.35096 8.2898 2.60436 8.01933C2.85777 7.74886 3.00008 7.38207 3 6.99966L3 7.00031ZM3 2.41455C3 2.2252 2.96504 2.0377 2.89712 1.86276C2.8292 1.68782 2.72965 1.52887 2.60415 1.39498C2.47865 1.26109 2.32965 1.15488 2.16568 1.08241C2.00171 1.00995 1.82596 0.972656 1.64847 0.972656C1.47099 0.972656 1.29524 1.00995 1.13127 1.08241C0.96729 1.15488 0.818299 1.26109 0.692798 1.39498C0.567297 1.52887 0.467744 1.68782 0.399824 1.86276C0.331903 2.0377 0.296945 2.2252 0.296945 2.41455C0.297026 2.79697 0.439497 3.16368 0.693015 3.43403C0.946533 3.70438 1.29033 3.85621 1.64878 3.85612C2.00723 3.85603 2.35096 3.70404 2.60436 3.43357C2.85777 3.1631 3.00008 2.79631 3 2.4139L3 2.41455ZM3 11.5861C3 11.3967 2.96504 11.2092 2.89712 11.0343C2.8292 10.8594 2.72965 10.7004 2.60415 10.5665C2.47865 10.4326 2.32965 10.3264 2.16568 10.2539C2.0017 10.1815 1.82596 10.1442 1.64847 10.1442C1.47099 10.1442 1.29524 10.1815 1.13126 10.2539C0.96729 10.3264 0.818299 10.4326 0.692798 10.5665C0.567297 10.7004 0.467744 10.8594 0.399823 11.0343C0.331903 11.2092 0.296945 11.3967 0.296945 11.5861C0.297026 11.9685 0.439496 12.3352 0.693015 12.6056C0.946533 12.8759 1.29033 13.0277 1.64878 13.0276C2.00723 13.0276 2.35096 12.8756 2.60436 12.6051C2.85777 12.3346 3.00008 11.9678 3 11.5854L3 11.5861Z" fill="#425662"/>
</svg>
