<svg width="60" height="60" viewBox="0 0 60 60" fill="none" xmlns="http://www.w3.org/2000/svg">
<circle cx="30" cy="30.0001" r="30" fill="#EFF2F7"/>
<path d="M29.0535 32.4048H27.9775C26.4304 32.4048 25.6569 32.4048 25.3642 31.9019C25.0715 31.399 25.4537 30.7264 26.2179 29.3813L28.6136 25.1648C28.9931 24.497 29.1828 24.1631 29.3712 24.2129C29.5595 24.2626 29.5595 24.6467 29.5595 25.4148V28.256C29.5595 28.4946 29.5595 28.6138 29.6336 28.6879C29.7077 28.762 29.8269 28.762 30.0654 28.762H31.1414C32.6886 28.762 33.4621 28.762 33.7548 29.2649C34.0475 29.7679 33.6653 30.4404 32.9011 31.7856L30.5053 36.002C30.1259 36.6698 29.9362 37.0037 29.7478 36.954C29.5595 36.9042 29.5595 36.5202 29.5595 35.7521V32.9108C29.5595 32.6723 29.5595 32.553 29.4854 32.4789C29.4113 32.4048 29.2921 32.4048 29.0535 32.4048Z" fill="#33A3AA"/>
<circle cx="29.5" cy="30.5001" r="10.5" stroke="#33A3AA" stroke-width="1.5"/>
</svg>
