<svg width="60" height="60" viewBox="0 0 60 60" fill="none" xmlns="http://www.w3.org/2000/svg">
<circle cx="30" cy="30.0001" r="30" fill="#EFF2F7"/>
<path fill-rule="evenodd" clip-rule="evenodd" d="M29.8748 20.0001C26.6042 20.0001 23.7911 21.9526 22.5347 24.7524C22.4142 25.0209 22.329 25.2106 22.2634 25.3487C22.1982 25.4858 22.1711 25.5307 22.1677 25.5364L22.1677 25.5364C22.1674 25.5369 22.1673 25.5371 22.1674 25.537C22.0667 25.6778 22.015 25.7187 21.9869 25.7368C21.9588 25.755 21.9004 25.7855 21.7307 25.8196C21.6815 25.8295 21.5767 25.8335 21.125 25.8335C18.2945 25.8335 16 28.1281 16 30.9585C16 33.789 18.2945 36.0835 21.125 36.0835H32.2139L32.8567 34.5835H21.125C19.123 34.5835 17.5 32.9606 17.5 30.9585C17.5 28.9565 19.123 27.3335 21.125 27.3335L21.204 27.3336C21.5323 27.3339 21.8082 27.3341 22.0265 27.2902C22.2916 27.2369 22.5538 27.1568 22.802 26.9961C23.0503 26.8353 23.2307 26.6289 23.3879 26.4089C23.4735 26.2891 23.5495 26.137 23.6181 25.9927C23.6917 25.838 23.7836 25.6331 23.8992 25.3755L23.8992 25.3755L23.9032 25.3666C24.9266 23.086 27.2163 21.5001 29.8748 21.5001C32.5332 21.5001 34.8228 23.0859 35.8463 25.3663L35.8504 25.3754C35.966 25.633 36.058 25.838 36.1317 25.9929C36.2003 26.1372 36.2764 26.2895 36.3621 26.4093C36.5192 26.6292 36.6996 26.8355 36.9477 26.9961C37.1958 27.1567 37.4579 27.2368 37.7228 27.2901C37.9412 27.3341 38.2174 27.3339 38.546 27.3336L38.625 27.3335C40.627 27.3335 42.25 28.9565 42.25 30.9585C42.25 32.9606 40.627 34.5835 38.625 34.5835H38.5603L39.19 36.0528C41.7546 35.7715 43.75 33.5981 43.75 30.9585C43.75 28.1281 41.4555 25.8335 38.625 25.8335C38.173 25.8335 38.0681 25.8295 38.0189 25.8196C37.8492 25.7855 37.7908 25.755 37.7628 25.7368C37.7347 25.7187 37.683 25.6779 37.5824 25.5371C37.5825 25.5372 37.5824 25.5371 37.5821 25.5365L37.5821 25.5365C37.5786 25.5308 37.5515 25.4858 37.4863 25.3487C37.4206 25.2106 37.3353 25.0207 37.2148 24.752C35.9582 21.9524 33.1453 20.0001 29.8748 20.0001Z" fill="#33A3AA"/>
<path d="M34.5936 38.4167V37.7704L36.1037 36.3722C36.2322 36.2479 36.3399 36.136 36.4269 36.0366C36.5153 35.9372 36.5823 35.8398 36.6278 35.7445C36.6734 35.6478 36.6962 35.5436 36.6962 35.4317C36.6962 35.3074 36.6679 35.2004 36.6113 35.1106C36.5546 35.0195 36.4773 34.9498 36.3793 34.9014C36.2812 34.8517 36.17 34.8268 36.0457 34.8268C35.9159 34.8268 35.8027 34.8531 35.706 34.9056C35.6093 34.958 35.5348 35.0333 35.4823 35.1314C35.4298 35.2294 35.4036 35.3461 35.4036 35.4814H34.5522C34.5522 35.2039 34.615 34.9629 34.7407 34.7585C34.8664 34.5541 35.0424 34.396 35.2689 34.2841C35.4954 34.1723 35.7564 34.1163 36.052 34.1163C36.3558 34.1163 36.6202 34.1702 36.8453 34.2779C37.0718 34.3842 37.2479 34.532 37.3736 34.7212C37.4992 34.9104 37.5621 35.1272 37.5621 35.3716C37.5621 35.5318 37.5303 35.69 37.4668 35.846C37.4046 36.0021 37.2935 36.1754 37.1333 36.366C36.9731 36.5552 36.7473 36.7823 36.4559 37.0475L35.8365 37.6544V37.6834H37.618V38.4167H34.5936Z" fill="#33A3AA"/>
<path d="M29.3091 28.0667H28.2203C28.2004 27.9258 28.1598 27.8007 28.0985 27.6913C28.0372 27.5803 27.9584 27.4858 27.8623 27.4079C27.7662 27.33 27.6552 27.2704 27.5292 27.2289C27.4049 27.1875 27.2699 27.1668 27.124 27.1668C26.8606 27.1668 26.631 27.2323 26.4355 27.3632C26.2399 27.4924 26.0883 27.6814 25.9806 27.9299C25.8729 28.1769 25.819 28.4768 25.819 28.8298C25.819 29.1927 25.8729 29.4976 25.9806 29.7446C26.09 29.9915 26.2424 30.1779 26.438 30.3039C26.6335 30.4298 26.8597 30.4928 27.1166 30.4928C27.2608 30.4928 27.3942 30.4737 27.5168 30.4356C27.6411 30.3975 27.7513 30.342 27.8474 30.2691C27.9435 30.1945 28.0231 30.1042 28.086 29.9981C28.1507 29.8921 28.1954 29.7711 28.2203 29.6352L29.3091 29.6402C29.2809 29.8738 29.2105 30.0992 29.0978 30.3163C28.9867 30.5317 28.8368 30.7248 28.6478 30.8955C28.4606 31.0645 28.2369 31.1988 27.9767 31.2982C27.7182 31.396 27.4257 31.4448 27.0992 31.4448C26.6451 31.4448 26.2391 31.3421 25.8811 31.1366C25.5249 30.9311 25.2431 30.6336 25.036 30.2442C24.8305 29.8548 24.7277 29.3833 24.7277 28.8298C24.7277 28.2746 24.8321 27.8023 25.0409 27.4129C25.2498 27.0234 25.5331 26.7268 25.8911 26.523C26.249 26.3175 26.6517 26.2147 27.0992 26.2147C27.3942 26.2147 27.6676 26.2562 27.9195 26.339C28.1731 26.4219 28.3976 26.5429 28.5932 26.7019C28.7887 26.8594 28.9478 27.0524 29.0704 27.2811C29.1947 27.5098 29.2743 27.7717 29.3091 28.0667ZM34.7592 28.8298C34.7592 29.385 34.6539 29.8573 34.4435 30.2467C34.2347 30.6361 33.9496 30.9336 33.5884 31.1391C33.2287 31.3429 32.8244 31.4448 32.3753 31.4448C31.9229 31.4448 31.5169 31.3421 31.1572 31.1366C30.7976 30.9311 30.5134 30.6336 30.3046 30.2442C30.0958 29.8548 29.9914 29.3833 29.9914 28.8298C29.9914 28.2746 30.0958 27.8023 30.3046 27.4129C30.5134 27.0234 30.7976 26.7268 31.1572 26.523C31.5169 26.3175 31.9229 26.2147 32.3753 26.2147C32.8244 26.2147 33.2287 26.3175 33.5884 26.523C33.9496 26.7268 34.2347 27.0234 34.4435 27.4129C34.6539 27.8023 34.7592 28.2746 34.7592 28.8298ZM33.6679 28.8298C33.6679 28.4702 33.614 28.1669 33.5063 27.92C33.4003 27.6731 33.2503 27.4858 33.0564 27.3582C32.8625 27.2306 32.6355 27.1668 32.3753 27.1668C32.1151 27.1668 31.8881 27.2306 31.6942 27.3582C31.5003 27.4858 31.3495 27.6731 31.2418 27.92C31.1357 28.1669 31.0827 28.4702 31.0827 28.8298C31.0827 29.1894 31.1357 29.4927 31.2418 29.7396C31.3495 29.9865 31.5003 30.1738 31.6942 30.3014C31.8881 30.429 32.1151 30.4928 32.3753 30.4928C32.6355 30.4928 32.8625 30.429 33.0564 30.3014C33.2503 30.1738 33.4003 29.9865 33.5063 29.7396C33.614 29.4927 33.6679 29.1894 33.6679 28.8298Z" fill="#33A3AA"/>
</svg>
