<svg width="60" height="60" viewBox="0 0 60 60" fill="none" xmlns="http://www.w3.org/2000/svg">
<circle cx="30" cy="30.0001" r="30" fill="#EFF2F7"/>
<path fill-rule="evenodd" clip-rule="evenodd" d="M29.8748 20.0001C26.6042 20.0001 23.7911 21.9526 22.5347 24.7524C22.4142 25.0209 22.329 25.2106 22.2634 25.3487C22.1982 25.4858 22.1711 25.5307 22.1677 25.5364L22.1677 25.5364C22.1674 25.5369 22.1673 25.5371 22.1674 25.537C22.0667 25.6778 22.015 25.7187 21.9869 25.7368C21.9588 25.755 21.9004 25.7855 21.7307 25.8196C21.6815 25.8295 21.5767 25.8335 21.125 25.8335C18.2945 25.8335 16 28.1281 16 30.9585C16 33.789 18.2945 36.0835 21.125 36.0835H32.2139L32.8567 34.5835H21.125C19.123 34.5835 17.5 32.9606 17.5 30.9585C17.5 28.9565 19.123 27.3335 21.125 27.3335L21.204 27.3336C21.5323 27.3339 21.8082 27.3341 22.0265 27.2902C22.2916 27.2369 22.5538 27.1568 22.802 26.9961C23.0503 26.8353 23.2307 26.6289 23.3879 26.4089C23.4735 26.2891 23.5495 26.137 23.6181 25.9927C23.6917 25.838 23.7836 25.6331 23.8992 25.3755L23.8992 25.3755L23.9032 25.3666C24.9266 23.086 27.2163 21.5001 29.8748 21.5001C32.5332 21.5001 34.8228 23.0859 35.8463 25.3663L35.8504 25.3754C35.966 25.633 36.058 25.838 36.1317 25.9929C36.2003 26.1372 36.2764 26.2895 36.3621 26.4093C36.5192 26.6292 36.6996 26.8355 36.9477 26.9961C37.1958 27.1567 37.4579 27.2368 37.7228 27.2901C37.9412 27.3341 38.2174 27.3339 38.546 27.3336L38.625 27.3335C40.627 27.3335 42.25 28.9565 42.25 30.9585C42.25 32.9606 40.627 34.5835 38.625 34.5835H38.5603L39.19 36.0528C41.7546 35.7715 43.75 33.5981 43.75 30.9585C43.75 28.1281 41.4555 25.8335 38.625 25.8335C38.173 25.8335 38.0681 25.8295 38.0189 25.8196C37.8492 25.7855 37.7908 25.755 37.7628 25.7368C37.7347 25.7187 37.683 25.6779 37.5824 25.5371C37.5825 25.5372 37.5824 25.5371 37.5821 25.5365L37.5821 25.5365C37.5786 25.5308 37.5515 25.4858 37.4863 25.3487C37.4206 25.2106 37.3353 25.0207 37.2148 24.752C35.9582 21.9524 33.1453 20.0001 29.8748 20.0001Z" fill="#33A3AA"/>
</svg>
