<svg width="14" height="15" viewBox="0 0 14 15" fill="none" xmlns="http://www.w3.org/2000/svg">
<circle cx="7" cy="7.50012" r="7" fill="#FFF3F1"/>
<path fill-rule="evenodd" clip-rule="evenodd" d="M6.62122 4.14585C6.47949 4.32394 6.32047 4.59745 6.09232 4.99152L3.97133 8.65505C3.74237 9.05053 3.58375 9.32568 3.49958 9.53801C3.41612 9.74853 3.43056 9.8373 3.46408 9.89543C3.49759 9.95356 3.56718 10.0105 3.79118 10.0438C4.01711 10.0773 4.3347 10.0779 4.79168 10.0779H9.03367C9.49065 10.0779 9.80824 10.0773 10.0342 10.0438C10.2582 10.0105 10.3278 9.95356 10.3613 9.89543C10.3948 9.8373 10.4092 9.74853 10.3258 9.53801C10.2416 9.32568 10.083 9.05053 9.85402 8.65505L7.73303 4.99152C7.50488 4.59745 7.34586 4.32394 7.20413 4.14585C7.06367 3.96935 6.97972 3.93762 6.91268 3.93762C6.84563 3.93762 6.76169 3.96935 6.62122 4.14585ZM6.2789 3.87342C6.44696 3.66224 6.6434 3.50012 6.91268 3.50012C7.18195 3.50012 7.37839 3.66224 7.54646 3.87342C7.71084 4.07997 7.88577 4.38214 8.1021 4.75582L8.10211 4.75583L8.11165 4.77232L10.2326 8.43585L10.2422 8.45233L10.2422 8.45234C10.4594 8.82742 10.6349 9.13063 10.7325 9.37678C10.8322 9.62835 10.8751 9.88011 10.7403 10.1139C10.6055 10.3478 10.3661 10.4368 10.0984 10.4765C9.8365 10.5154 9.48613 10.5154 9.05272 10.5154H9.03367H4.79168H4.77264C4.33923 10.5154 3.98885 10.5154 3.72693 10.4765C3.45926 10.4368 3.21988 10.3478 3.08506 10.1139C2.95024 9.88011 2.99314 9.62835 3.09287 9.37678C3.19045 9.13063 3.366 8.82742 3.58316 8.45235L3.59271 8.43585L5.7137 4.77232L5.72324 4.75583C5.93958 4.38215 6.11451 4.07998 6.2789 3.87342ZM6.91241 5.93634C7.03322 5.93634 7.13116 6.03428 7.13116 6.15509V7.66218C7.13116 7.783 7.03322 7.88093 6.91241 7.88093C6.79159 7.88093 6.69366 7.783 6.69366 7.66218V6.15509C6.69366 6.03428 6.79159 5.93634 6.91241 5.93634ZM6.91204 9.16933C7.12012 9.16933 7.28881 9.00064 7.28881 8.79255C7.28881 8.58447 7.12012 8.41578 6.91204 8.41578C6.70395 8.41578 6.53526 8.58447 6.53526 8.79255C6.53526 9.00064 6.70395 9.16933 6.91204 9.16933Z" fill="#FF1010"/>
</svg>
