<svg width="60" height="60" viewBox="0 0 60 60" fill="none" xmlns="http://www.w3.org/2000/svg">
<circle cx="30" cy="30.0001" r="30" fill="#EFF2F7"/>
<path d="M36.2188 36.6407C36.2188 37.5731 35.8484 38.4674 35.189 39.1267C34.5297 39.786 33.6355 40.1564 32.7031 40.1564C31.1914 40.1564 29.7313 39.1743 29.2309 37.822C29.1662 37.647 29.1737 37.4535 29.2517 37.2841C29.3298 37.1146 29.4719 36.9831 29.6469 36.9185C29.8219 36.8538 30.0153 36.8613 30.1848 36.9394C30.3542 37.0174 30.4857 37.1595 30.5504 37.3345C30.8434 38.1279 31.7891 38.7501 32.7031 38.7501C33.2626 38.7501 33.7991 38.5279 34.1947 38.1323C34.5903 37.7367 34.8125 37.2002 34.8125 36.6407C34.8125 36.0813 34.5903 35.5448 34.1947 35.1492C33.7991 34.7536 33.2626 34.5314 32.7031 34.5314H19.5781C19.3916 34.5314 19.2128 34.4573 19.0809 34.3254C18.9491 34.1936 18.875 34.0147 18.875 33.8282C18.875 33.6418 18.9491 33.4629 19.0809 33.3311C19.2128 33.1992 19.3916 33.1251 19.5781 33.1251H32.7031C33.6355 33.1251 34.5297 33.4955 35.189 34.1548C35.8484 34.8141 36.2188 35.7083 36.2188 36.6407ZM32.4688 23.5157C32.4688 22.5833 32.0984 21.6891 31.439 21.0298C30.7797 20.3705 29.8855 20.0001 28.9531 20.0001C27.4414 20.0001 25.9813 20.9822 25.4809 22.3345C25.4162 22.5095 25.4237 22.703 25.5017 22.8724C25.5798 23.0419 25.7219 23.1734 25.8969 23.238C26.0719 23.3027 26.2654 23.2951 26.4348 23.2171C26.6042 23.1391 26.7357 22.997 26.8004 22.822C27.0934 22.0286 28.0391 21.4064 28.9531 21.4064C29.5126 21.4064 30.0491 21.6286 30.4447 22.0242C30.8403 22.4198 31.0625 22.9563 31.0625 23.5157C31.0625 24.0752 30.8403 24.6117 30.4447 25.0073C30.0491 25.4029 29.5126 25.6251 28.9531 25.6251H17.7031C17.5166 25.6251 17.3378 25.6992 17.2059 25.8311C17.0741 25.9629 17 26.1418 17 26.3282C17 26.5147 17.0741 26.6936 17.2059 26.8254C17.3378 26.9573 17.5166 27.0314 17.7031 27.0314H28.9531C29.8855 27.0314 30.7797 26.661 31.439 26.0017C32.0984 25.3424 32.4688 24.4481 32.4688 23.5157ZM39.2656 23.7501C37.7539 23.7501 36.2937 24.7322 35.7934 26.0845C35.7613 26.1711 35.7467 26.2632 35.7503 26.3555C35.7539 26.4478 35.7756 26.5385 35.8142 26.6224C35.8529 26.7063 35.9077 26.7818 35.9754 26.8445C36.0432 26.9072 36.1227 26.956 36.2094 26.988C36.296 27.02 36.3881 27.0347 36.4804 27.0311C36.5727 27.0275 36.6634 27.0058 36.7473 26.9671C36.8312 26.9285 36.9067 26.8737 36.9694 26.8059C37.0321 26.7381 37.0809 26.6586 37.1129 26.572C37.4059 25.7786 38.3516 25.1564 39.2656 25.1564C39.8251 25.1564 40.3616 25.3786 40.7572 25.7742C41.1528 26.1698 41.375 26.7063 41.375 27.2657C41.375 27.8252 41.1528 28.3617 40.7572 28.7573C40.3616 29.1529 39.8251 29.3751 39.2656 29.3751H18.6406C18.4541 29.3751 18.2753 29.4492 18.1434 29.5811C18.0116 29.7129 17.9375 29.8918 17.9375 30.0782C17.9375 30.2647 18.0116 30.4436 18.1434 30.5754C18.2753 30.7073 18.4541 30.7814 18.6406 30.7814H39.2656C40.198 30.7814 41.0922 30.411 41.7515 29.7517C42.4109 29.0924 42.7812 28.1981 42.7812 27.2657C42.7812 26.3333 42.4109 25.4391 41.7515 24.7798C41.0922 24.1205 40.198 23.7501 39.2656 23.7501Z" fill="#33A3AA"/>
</svg>
