<svg width="28" height="28" viewBox="0 0 28 28" fill="none" xmlns="http://www.w3.org/2000/svg">
<path d="M7.87322 10.7282C8.21745 7.6302 10.8361 5.28644 13.9531 5.28644V5.28644C17.0702 5.28644 19.6888 7.6302 20.033 10.7282L20.3088 13.2098C20.4502 14.4829 20.8646 15.7105 21.5236 16.8088L22.1566 17.8638C22.4386 18.3338 22.5796 18.5688 22.6324 18.7513C22.8601 19.5385 22.3956 20.3589 21.6035 20.5686C21.4198 20.6172 21.1458 20.6172 20.5976 20.6172H7.3086C6.76049 20.6172 6.48644 20.6172 6.30278 20.5686C5.51063 20.3589 5.04613 19.5385 5.27387 18.7513C5.32667 18.5688 5.46767 18.3338 5.74967 17.8638L6.38265 16.8088C7.04167 15.7105 7.45604 14.4829 7.59749 13.2098L7.87322 10.7282Z" stroke="#9595A6" stroke-width="1.45"/>
<path d="M10.7799 21.0616C10.9671 21.8766 11.3795 22.5967 11.9532 23.1103C12.527 23.6239 13.2299 23.9023 13.9531 23.9023C14.6763 23.9023 15.3793 23.6239 15.953 23.1103C16.5267 22.5967 16.9392 21.8766 17.1263 21.0616" stroke="#9595A6" stroke-width="1.46007" stroke-linecap="round"/>
</svg>
