<svg width="60" height="60" viewBox="0 0 60 60" fill="none" xmlns="http://www.w3.org/2000/svg">
<circle cx="30" cy="30.0001" r="30" fill="#EFF2F7"/>
<path d="M38 32.0001H40V34.0001H38C36.62 34.0001 35.26 33.6501 34 33.0001C31.5 34.3001 28.5 34.3001 26 33.0001C24.74 33.6501 23.37 34.0001 22 34.0001H20V32.0001H22C23.39 32.0001 24.78 31.5301 26 30.6701C28.44 32.3801 31.56 32.3801 34 30.6701C35.22 31.5301 36.61 32.0001 38 32.0001ZM38 38.0001H40V40.0001H38C36.62 40.0001 35.26 39.6501 34 39.0001C31.5 40.3001 28.5 40.3001 26 39.0001C24.74 39.6501 23.37 40.0001 22 40.0001H20V38.0001H22C23.39 38.0001 24.78 37.5301 26 36.6701C28.44 38.3801 31.56 38.3801 34 36.6701C35.22 37.5301 36.61 38.0001 38 38.0001ZM25 20.0001L21 24.0001H24V29.0001H26V24.0001H29M35 20.0001L31 24.0001H34V29.0001H36V24.0001H39" fill="#33A3AA"/>
</svg>
