<svg width="60" height="60" viewBox="0 0 60 60" fill="none" xmlns="http://www.w3.org/2000/svg">
<circle cx="30" cy="30.0001" r="30" fill="#EFF2F7"/>
<path d="M30 24.0001C31.3805 24.0001 32.7425 24.3177 33.9806 24.9283C35.2187 25.5388 36.2998 26.4261 37.1402 27.5213C37.9806 28.6165 38.5577 29.8903 38.8271 31.2443C39.0964 32.5983 39.0506 33.996 38.6933 35.3295L36.7615 34.8116M30 24.0001C28.6195 24.0001 27.2575 24.3177 26.0194 24.9283C24.7813 25.5388 23.7002 26.4261 22.8598 27.5213C22.0194 28.6165 21.4423 29.8903 21.1729 31.2443C20.9036 32.5983 20.9494 33.996 21.3067 35.3295L23.2385 34.8116M30 24.0001V26.0001M23.6357 26.6359L25.05 28.0501M36.3643 26.6359L34.95 28.0501M30.7659 33.5824C31.2534 34.2918 30.9106 35.374 30.0003 35.9995C29.0899 36.6251 27.9568 36.5572 27.4693 35.8478C26.9498 35.0919 25.1564 30.841 24.0674 28.2116C23.8623 27.7163 24.4679 27.3001 24.8567 27.6691C26.921 29.6284 30.2464 32.8264 30.7659 33.5824Z" stroke="#33A3AA" stroke-width="1.5" stroke-linecap="round"/>
</svg>
