<svg width="60" height="60" viewBox="0 0 60 60" fill="none" xmlns="http://www.w3.org/2000/svg">
<circle cx="30" cy="30.0001" r="30" fill="#EFF2F7"/>
<path d="M24.4167 29.8335L24.4167 36.3335" stroke="#33A3AA" stroke-width="1.5" stroke-linecap="round" stroke-linejoin="round"/>
<path d="M28.75 32.0001V36.3335" stroke="#33A3AA" stroke-width="1.5" stroke-linecap="round" stroke-linejoin="round"/>
<path d="M33.0833 27.6667V36.3334" stroke="#33A3AA" stroke-width="1.5" stroke-linecap="round" stroke-linejoin="round"/>
<rect x="19" y="23.3335" width="19.5" height="17.3333" rx="2" stroke="#33A3AA" stroke-width="1.5"/>
<path d="M34.7738 22.0251C34.1182 22.682 33.75 23.5721 33.75 24.5001C33.75 25.4282 34.1182 26.3183 34.7738 26.9751C35.4588 27.6601 36.3538 28.0001 37.2488 28.0001C38.1438 28.0001 39.0388 27.6601 39.7238 26.9751C41.4638 25.2351 41.7488 20.0001 41.7488 20.0001C41.7488 20.0001 36.5138 20.2851 34.7738 22.0251Z" fill="#EFF2F7"/>
<path d="M35.518 22.5191C35.0262 23.0119 34.75 23.6796 34.75 24.3757C34.75 25.0719 35.0262 25.7396 35.518 26.2323C36.0318 26.7461 36.7032 27.0012 37.3746 27.0012C38.0459 27.0012 38.7173 26.7461 39.2311 26.2323C40.5364 24.9271 40.7501 21.0001 40.7501 21.0001C40.7501 21.0001 36.8232 21.2139 35.518 22.5191ZM38.7023 25.7034C38.346 26.056 37.8771 26.251 37.3746 26.251C37.0408 26.251 36.7257 26.1573 36.4444 25.996C36.7895 24.9158 37.4271 23.9669 38.2747 23.2505C37.2883 23.7606 36.4594 24.5482 35.8856 25.5009C35.3305 24.7658 35.3792 23.7193 36.0506 23.048C36.7032 22.3954 38.5148 21.994 39.925 21.8253C39.7562 23.2355 39.3549 25.0471 38.7023 25.7034Z" fill="#33A3AA"/>
</svg>
