<svg width="60" height="60" viewBox="0 0 60 60" fill="none" xmlns="http://www.w3.org/2000/svg">
<circle cx="30" cy="30.0001" r="30" fill="#EFF2F7"/>
<path d="M29.5625 18.8751C28.8663 18.8751 28.1986 19.1517 27.7063 19.644C27.2141 20.1363 26.9375 20.8039 26.9375 21.5001V33.3404L26.594 33.6224C25.8457 34.2347 25.305 35.0634 25.0462 35.995C24.7873 36.9266 24.8228 37.9155 25.1479 38.8261C25.473 39.7367 26.0717 40.5246 26.862 41.0816C27.6523 41.6386 28.5956 41.9376 29.5625 41.9376C30.5294 41.9376 31.4727 41.6386 32.263 41.0816C33.0533 40.5246 33.652 39.7367 33.9771 38.8261C34.3022 37.9155 34.3377 36.9266 34.0788 35.995C33.82 35.0634 33.2793 34.2347 32.531 33.6224L32.1875 33.3404V21.5001C32.1875 21.1554 32.1196 20.8141 31.9877 20.4956C31.8558 20.1771 31.6624 19.8877 31.4187 19.644C31.1749 19.4002 30.8855 19.2069 30.567 19.0749C30.2486 18.943 29.9072 18.8751 29.5625 18.8751ZM25.0625 21.5001C25.0625 20.3066 25.5366 19.1621 26.3805 18.3181C27.2244 17.4742 28.369 17.0001 29.5625 17.0001C30.756 17.0001 31.9006 17.4742 32.7445 18.3181C33.5884 19.1621 34.0625 20.3066 34.0625 21.5001V32.4734C35.0194 33.3748 35.6834 34.5429 35.9687 35.8262C36.2539 37.1094 36.1471 38.4488 35.6622 39.6707C35.1773 40.8926 34.3366 41.9407 33.249 42.6792C32.1614 43.4177 30.8771 43.8125 29.5625 43.8125C28.2479 43.8125 26.9636 43.4177 25.876 42.6792C24.7884 41.9407 23.9477 40.8926 23.4628 39.6707C22.9779 38.4488 22.8711 37.1094 23.1563 35.8262C23.4416 34.5429 24.1056 33.3748 25.0625 32.4734V21.5001ZM32.5625 37.2501C32.5625 37.8029 32.4097 38.3449 32.121 38.8164C31.8324 39.2878 31.4191 39.6703 30.9268 39.9217C30.4344 40.1731 29.8822 40.2836 29.3311 40.2409C28.7799 40.1983 28.2513 40.0042 27.8035 39.6801C27.3557 39.356 27.0062 38.9144 26.7935 38.4042C26.5808 37.894 26.5132 37.3349 26.5982 36.7887C26.6832 36.2424 26.9174 35.7303 27.2751 35.3088C27.6327 34.8873 28.0999 34.5729 28.625 34.4001V26.1876C28.625 25.939 28.7238 25.7005 28.8996 25.5247C29.0754 25.3489 29.3139 25.2501 29.5625 25.2501C29.8111 25.2501 30.0496 25.3489 30.2254 25.5247C30.4012 25.7005 30.5 25.939 30.5 26.1876V34.4001C31.0999 34.5977 31.6223 34.9796 31.9926 35.4913C32.3629 36.003 32.5623 36.6185 32.5625 37.2501Z" fill="#33A3AA"/>
</svg>
