<svg width="14" height="15" viewBox="0 0 14 15" fill="none" xmlns="http://www.w3.org/2000/svg">
<circle cx="7" cy="7.50012" r="7" fill="#DEE8DB" fill-opacity="0.66"/>
<path d="M5.72191 9.65296L4.1031 8.03416C4.01587 7.94693 3.89757 7.89792 3.77421 7.89792C3.65085 7.89792 3.53254 7.94693 3.44531 8.03416C3.35809 8.12138 3.30908 8.23969 3.30908 8.36305C3.30908 8.42413 3.32111 8.48461 3.34449 8.54104C3.36786 8.59748 3.40212 8.64875 3.44531 8.69194L5.39535 10.642C5.57729 10.8239 5.87119 10.8239 6.05313 10.642L10.9889 5.70625C11.0761 5.61902 11.1251 5.50071 11.1251 5.37736C11.1251 5.254 11.0761 5.13569 10.9889 5.04846C10.9016 4.96124 10.7833 4.91223 10.66 4.91223C10.5366 4.91223 10.4183 4.96124 10.3311 5.04846L5.72191 9.65296Z" fill="#539B5B"/>
</svg>
