<svg width="20" height="21" viewBox="0 0 20 21" fill="none" xmlns="http://www.w3.org/2000/svg">
<path d="M19.9983 10.4983V10.4934C19.9983 7.53443 18.7101 4.87715 16.6644 3.04981L16.6544 3.04147C16.6292 3.01424 16.601 2.98992 16.5703 2.96898L16.5686 2.96815C14.7518 1.37289 12.4153 0.495307 9.9975 0.500019C7.47104 0.500019 5.16457 1.43827 3.40638 2.98648L3.41722 2.97731C3.39603 2.99339 3.37649 3.01153 3.35889 3.03147C2.30192 3.96739 1.45587 5.11804 0.876811 6.4056C0.297746 7.69316 -0.00112231 9.08907 3.16696e-06 10.5008C3.16696e-06 13.4589 1.28656 16.1162 3.33056 17.9444L3.34056 17.9527C3.36703 17.9827 3.39664 18.0098 3.42888 18.0336L3.43055 18.0344C5.24693 19.6273 7.5816 20.5036 9.9975 20.4992C12.4247 20.5029 14.7694 19.6185 16.5894 18.0127L16.5786 18.0219C17.6539 17.087 18.5159 15.9321 19.1061 14.6352C19.6964 13.3384 20.0012 11.9299 20 10.505V10.4992L19.9983 10.4983ZM16.2803 17.002C15.785 16.6013 15.2523 16.2492 14.6896 15.9504L14.6354 15.9237C15.1462 14.4514 15.4537 12.754 15.4829 10.9883V10.975H19.0334C18.9137 13.2593 17.9305 15.4128 16.2828 16.9995L16.2803 17.002ZM10.4758 15.7479C11.5449 15.8054 12.544 16.0404 13.4655 16.4229L13.4055 16.4012C12.6673 18.0844 11.6282 19.241 10.4758 19.4951V15.7479ZM10.4758 14.7947V10.975H14.5321C14.4999 12.5567 14.2257 14.1242 13.7189 15.6229L13.7514 15.5138C12.7168 15.0886 11.6165 14.8456 10.4991 14.7955L10.4758 14.7947ZM10.4758 10.0217V6.20204C11.6233 6.14967 12.7531 5.89846 13.8147 5.4596L13.7489 5.48377C14.2113 6.83282 14.4955 8.38769 14.5321 10.0042V10.0217H10.4758ZM10.4758 5.24879V1.50327C11.6282 1.75741 12.6673 2.90898 13.4055 4.59718C12.544 4.95548 11.5449 5.18963 10.5 5.24795L10.4758 5.24879ZM12.8539 1.91573C13.8358 2.24324 14.7541 2.73705 15.5687 3.37561L15.5495 3.36061C15.1804 3.65059 14.7663 3.9239 14.3296 4.16138L14.283 4.18471C13.9302 3.35205 13.445 2.5819 12.8464 1.90407L12.8539 1.91323V1.91573ZM9.52087 1.50577V5.24879C8.49304 5.19635 7.4818 4.96807 6.53112 4.57384L6.59112 4.59551C7.33272 2.91232 8.37014 1.75658 9.52254 1.50243L9.52087 1.50577ZM5.71452 4.18221C5.26284 3.93919 4.83246 3.6585 4.42797 3.34311L4.44796 3.35811C5.23884 2.73829 6.12842 2.25604 7.07941 1.93157L7.14274 1.9124C6.5598 2.57187 6.08481 3.31938 5.73536 4.12722L5.71452 4.18221ZM9.52254 6.20121V10.0209H5.46621C5.50288 8.38686 5.78702 6.83199 6.28198 5.37378L6.24948 5.48293C7.28361 5.90746 8.3833 6.15017 9.50004 6.20038L9.52254 6.20121ZM9.52254 10.9741V14.7938C8.375 14.8462 7.24526 15.0974 6.18365 15.5363L6.24948 15.5121C5.78702 14.1639 5.50288 12.6082 5.46621 10.9916V10.9741H9.52254ZM9.52254 15.7471V19.4926C8.37014 19.2385 7.33106 18.0869 6.59278 16.3987C7.45438 16.0404 8.45346 15.8071 9.49837 15.7487L9.52254 15.7471ZM7.14774 19.0801C6.16611 18.7536 5.24785 18.2609 4.43297 17.6236L4.45296 17.6386C4.8221 17.3486 5.23623 17.0753 5.67286 16.8378L5.71952 16.8145C6.0694 17.6475 6.5545 18.417 7.15524 19.0918L7.14774 19.0835V19.0801ZM14.2838 16.8137C14.7671 17.0761 15.1812 17.3486 15.5704 17.6528L15.5504 17.6378C14.7595 18.2576 13.8699 18.7398 12.9189 19.0643L12.8556 19.0835C13.4385 18.4243 13.9135 17.6771 14.263 16.8695L14.2838 16.8153V16.8137ZM19.0334 10.0217H15.4829C15.4573 8.29766 15.1598 6.58843 14.6013 4.95715L14.6354 5.07214C15.2241 4.76221 15.7813 4.3961 16.2995 3.97889L16.2795 3.99389C17.9237 5.57462 18.9073 7.72011 19.0317 9.99756L19.0326 10.0209L19.0334 10.0217ZM3.71803 3.99473C4.19799 4.38469 4.73711 4.74216 5.30873 5.0463L5.36289 5.07297C4.8521 6.54535 4.54462 8.2427 4.51546 10.0084V10.0217H0.964089C1.08382 7.73741 2.06704 5.58393 3.71469 3.99723L3.71803 3.99473ZM0.964922 10.975H4.51546C4.541 12.699 4.83853 14.4083 5.39705 16.0396L5.36289 15.9246C4.73711 16.257 4.19882 16.6145 3.69886 17.0178L3.71886 17.0028C2.07461 15.4221 1.09105 13.2766 0.966589 10.9991L0.965756 10.9758L0.964922 10.975Z" fill="#9595A6"/>
</svg>
