<svg width="20" height="25" viewBox="0 0 20 25" fill="none" xmlns="http://www.w3.org/2000/svg">
<path d="M3.90732 8.92287C4.21202 5.78613 6.8485 3.39334 10 3.39334V3.39334C13.1515 3.39334 15.788 5.78613 16.0927 8.92287L16.4697 12.8041C16.4838 12.9497 16.4909 13.0225 16.499 13.0946C16.6275 14.2383 16.9591 15.3499 17.4784 16.377C17.5111 16.4418 17.5451 16.5066 17.6131 16.6361L18.2871 17.9212C18.9837 19.2491 19.3319 19.913 19.1216 20.4321C19.0734 20.551 19.0067 20.6614 18.9238 20.7593C18.5618 21.1867 17.812 21.1867 16.3125 21.1867H3.68747C2.18796 21.1867 1.43821 21.1867 1.07623 20.7593C0.993349 20.6614 0.926574 20.551 0.878413 20.4321C0.668071 19.913 1.01634 19.2491 1.71289 17.9212L2.38694 16.6361C2.4549 16.5066 2.48889 16.4418 2.52162 16.377C3.04088 15.3499 3.37254 14.2383 3.501 13.0946C3.50909 13.0225 3.51617 12.9497 3.53031 12.8041L3.90732 8.92287Z" stroke="#9595A6" stroke-width="1.2"/>
<path d="M7.10222 21.2236C7.27315 22.1138 7.64978 22.9004 8.17372 23.4615C8.69765 24.0226 9.3396 24.3267 10 24.3267C10.6604 24.3267 11.3024 24.0226 11.8263 23.4615C12.3502 22.9004 12.7269 22.1138 12.8978 21.2236" stroke="#9595A6" stroke-width="1.20833" stroke-linecap="round"/>
<circle cx="15.5" cy="5" r="4.5" fill="#28B3BD"/>
</svg>
